mtllib materials.mtl
v -0.1189441 -0.03250003 0.1181192
v 0.07599458 -0.03250003 0.1558012
v 0.07599458 -0.03750002 0.1558012
v -0.1189441 -0.03750002 0.1181192
v 0.118944 0.0374999 -0.1181193
v 0.118944 0.03249991 -0.1181193
v -0.06599464 -0.03250003 -0.1558013
v -0.06599464 -0.03750002 -0.1558013
vn -0.1897888 -1.675417E-07 0.981825
vn 0.9879298 -4.293285E-07 0.1549025
vn 0.1996517 -5.920476E-07 -0.979867
vn -0.9818249 -4.136719E-07 -0.189789
vn -7.336538E-08 -1 -1.418169E-08
vn 5.113898E-08 1 9.643708E-09
vn 0.379274 -0.9090009 -0.1728254
vn -0.379274 0.9090009 0.1728254
vt 0.1347028 0.1059231
vt 0.1251743 0.123342
vt 0.1247357 0.123102
vt 0.1342642 0.1056831
vt 0.1519701 0.08655218
vt 0.1375029 0.1112194
vt 0.1371467 0.1108686
vt 0.1516138 0.08620135
vt -0.1313927 0.1263089
vt -0.1343598 0.1063987
vt -0.1339217 0.1061576
vt -0.1309547 0.1260679
vt -0.1345083 0.1034835
vt -0.1534549 0.0830045
vt -0.1530878 0.08266495
vt -0.1341413 0.1031439
vt 0.05165348 0.002315962
vt 0.06175866 0.01940677
vt 0.02763813 0.01651538
vt -0.02763813 0.01651538
vt -0.06175866 0.01940677
vt -0.05165349 0.002315966
vt 0.05664563 0.0876556
vt 0.03228491 0.1026331
vt 0.02250289 0.08503953
vt -0.02248697 0.08524732
vt -0.03226899 0.1028409
vt -0.05662971 0.08786339
o group1957240017
g mesh1957240017
usemtl mat21
f 4/4/1 3/3/1 2/2/1 1/1/1
f 3/8/2 6/7/2 5/6/2 2/5/2
f 6/12/3 8/11/3 7/10/3 5/9/3
f 8/16/4 4/15/4 1/14/4 7/13/4
f 8/19/5 3/18/5 4/17/5
f 1/22/6 2/21/6 7/20/6
f 8/25/7 6/24/7 3/23/7
f 2/28/8 5/27/8 7/26/8
