mtllib materials.mtl
v -0.1189373 -0.03249466 0.1181196
v 0.07600141 -0.03249466 0.1558016
v 0.07600141 -0.03749466 0.1558016
v -0.1189373 -0.03749466 0.1181196
v 0.1189509 0.03750527 -0.1181189
v 0.1189509 0.03250527 -0.1181189
v -0.06598781 -0.03249466 -0.1558009
v -0.06598781 -0.03749466 -0.1558009
vn -0.1897885 0 0.981825
vn -0.1897885 0 0.981825
vn 0.9879298 0 0.1549028
vn 0.9879298 0 0.1549028
vn 0.1996519 0 -0.9798669
vn 0.1996507 2.920234E-06 -0.9798672
vn -0.9818249 0 -0.189789
vn -0.9818249 0 -0.189789
vn 0 -1 0
vn 0 1 0
vn 0.3792739 -0.9090009 -0.1728253
vn -0.3792739 0.9090009 0.1728253
vt 0.5673515 0.5529619
vt 0.5625873 0.5616714
vt 0.5623679 0.5615515
vt 0.5673515 0.5529619
vt 0.5623679 0.5615515
vt 0.5671322 0.552842
vt 0.5759852 0.5432763
vt 0.5687517 0.5556099
vt 0.5685735 0.5554345
vt 0.5759852 0.5432763
vt 0.5685735 0.5554345
vt 0.5758071 0.5431008
vt 0.4343035 0.5631549
vt 0.43282 0.5531998
vt 0.433039 0.5530792
vt 0.4343034 0.5631548
vt 0.4330389 0.5530791
vt 0.4345224 0.5630342
vt 0.4327457 0.551742
vt 0.4232724 0.5415025
vt 0.4234559 0.5413327
vt 0.4327457 0.551742
vt 0.4234559 0.5413327
vt 0.4329292 0.5515722
vt 0.5258269 0.5011583
vt 0.5308794 0.5097037
vt 0.5138192 0.508258
vt 0.4861808 0.508258
vt 0.4691205 0.5097037
vt 0.4741731 0.5011583
vt 0.5283229 0.5438282
vt 0.5161426 0.551317
vt 0.5112516 0.5425202
vt 0.4887564 0.5426241
vt 0.4838654 0.5514209
vt 0.471685 0.5439321
o group1957240017
g mesh1957240017
usemtl mat21
f 3/3/1 2/2/1 1/1/1
f 4/6/2 3/5/2 1/4/2
f 6/9/3 5/8/3 2/7/3
f 3/12/4 6/11/4 2/10/4
f 8/15/5 7/14/5 5/13/5
f 6/18/6 8/17/6 5/16/6
f 4/21/7 1/20/7 7/19/7
f 8/24/8 4/23/8 7/22/8
f 8/27/9 3/26/9 4/25/9
f 1/30/10 2/29/10 7/28/10
f 8/33/11 6/32/11 3/31/11
f 2/36/12 5/35/12 7/34/12
