mtllib materials.mtl
v 0.08959983 -0.05990326 -0.03678992
v -0.08980662 -0.05990326 -0.03619635
v -0.0898947 -0.04659927 -0.06280404
v 0.08951187 -0.04659939 -0.06339765
v -0.08972986 -0.05990326 -0.01301226
v -0.08972993 -0.06655526 -0.01301226
v -0.08980662 -0.06655526 -0.03619635
v -0.08965317 -0.04659939 0.01017186
v 0.08975321 -0.04659939 0.009578288
v 0.08984122 -0.0199914 0.03618595
v -0.08956516 -0.0199914 0.03677952
v 0.08967653 -0.05990326 -0.0136058
v 0.08967653 -0.06655526 -0.0136058
v 0.08975321 -0.05325127 0.009578288
v 0.08959983 -0.06655526 -0.03678992
v -0.08965317 -0.05325127 0.01017186
v 0.08984122 -0.0266434 0.03618595
v -0.08956516 -0.0266434 0.03677952
v 0.08992924 0.006616473 0.04948962
v -0.08947714 0.006616473 0.05008319
v 0.08992924 -3.552437E-05 0.04948962
v -0.08947714 -3.552437E-05 0.05008319
v 0.09001726 0.04652834 0.06279331
v -0.08938912 0.04652834 0.06338689
v 0.09001726 0.06648433 0.07609728
v -0.08938912 0.06648433 0.07669085
v -0.0898947 -0.05325127 -0.06280404
v 0.08951187 -0.05325139 -0.06339765
v -0.08998272 -0.03329539 -0.07610783
v 0.089424 -0.03329539 -0.0767014
v -0.08998272 -0.03994739 -0.07610783
v 0.089424 -0.03994739 -0.0767014
vn 0.001479621 0.8944262 0.4472132
vn 0.001480273 0.894428 0.4472096
vn -0.9999945 1.064043E-05 0.003311016
vn -0.9999946 -5.600228E-07 0.003307803
vn -0.002339485 0.7071043 -0.7071053
vn -0.002339484 0.7071043 -0.7071053
vn 0.9999946 0 -0.003307482
vn 0.9999946 0 -0.003307482
vn 0 -1 0
vn 0 -1 0
vn -0.001646684 0.8673435 -0.4977072
vn -0.001646605 0.8673432 -0.4977077
vn 0 1 0
vn 0 1 0
vn 0.001646694 -0.8673416 0.4977106
vn 0.001646613 -0.8673413 0.4977111
vn -0.9999946 0 0.003307638
vn -0.9999946 1.064043E-05 0.003304585
vn 0.9999946 0 -0.00330812
vn 0.9999946 0 -0.00330812
vn 0.9999945 0 -0.003307535
vn 0.9999946 0 -0.003307535
vn 0.00233948 -0.7071059 0.7071038
vn 0.002339479 -0.7071059 0.7071038
vn -0.9999945 0 0.003307815
vn -0.9999946 0 0.003307815
vn -0.002959233 0.4472123 -0.894423
vn -0.002959231 0.4472122 -0.894423
vn 0.9999781 0 -0.006616163
vn 0.9999781 0 -0.006616164
vn 0.002959233 -0.4472123 0.894423
vn 0.002959231 -0.4472122 0.894423
vn -0.9999781 0 0.006615883
vn -0.9999781 -5.600136E-07 0.006617283
vn -0.003138739 0.3162269 -0.9486784
vn -0.003138742 0.3162269 -0.9486784
vn 0.9999946 0 -0.003308095
vn 0.9999684 -0.004410562 0.006615859
vn 0.003071886 -0.371389 0.9284722
vn 0.003071885 -0.371389 0.9284722
vn -0.9999781 -5.600135E-07 0.006617828
vn -0.9999822 0.003307699 -0.00496128
vn -0.002752862 0.5546972 -0.8320478
vn -0.002752865 0.5546972 -0.8320478
vn -0.9999946 -5.600228E-07 0.003310052
vn -0.9999946 0 0.003310192
vn -0.00147961 -0.894428 -0.4472096
vn -0.001480285 -0.8944262 -0.4472132
vn 0.9999946 0 -0.003305848
vn 0.9999946 0 -0.003305848
vn 0.00234005 0.7071102 0.7070994
vn 0.002339473 0.7071062 0.7071034
vn -0.9999781 0 0.006616103
vn -0.9999781 0 0.006616103
vn -0.002340064 -0.7071062 -0.7071035
vn -0.002339464 -0.7071102 -0.7070995
vn 0.9999782 0 -0.006604918
vn 0.9999782 0 -0.006604919
vn -0.003308514 0 -0.9999946
vn -0.003308514 0 -0.9999946
vt 0.5184023 0.5189496
vt 0.5226613 0.5110547
vt 0.5239704 0.5117609
vt 0.5184021 0.5189493
vt 0.5239701 0.5117607
vt 0.5197112 0.5196555
vt 0.441488 0.5598805
vt 0.4405418 0.5592108
vt 0.4407339 0.5589393
vt 0.4414871 0.5598796
vt 0.440733 0.5589385
vt 0.4416792 0.5596081
vt 0.4303762 0.5061526
vt 0.4312974 0.5150755
vt 0.4294259 0.5152687
vt 0.4303762 0.5061526
vt 0.4294259 0.5152687
vt 0.4285047 0.5063458
vt 0.5607896 0.5590833
vt 0.5594591 0.55921
vt 0.559267 0.5589385
vt 0.5607896 0.5590833
vt 0.559267 0.5589385
vt 0.5605975 0.5588118
vt 0.5150663 0.5030973
vt 0.5120772 0.4946396
vt 0.5131702 0.4942533
vt 0.5150663 0.5030973
vt 0.5131702 0.4942533
vt 0.5161593 0.5027111
vt 0.4447148 0.5047491
vt 0.4452339 0.4957937
vt 0.4465682 0.4958711
vt 0.4447148 0.5047491
vt 0.4465682 0.4958711
vt 0.446049 0.5048264
vt 0.4868298 0.4942533
vt 0.4879228 0.4946396
vt 0.4849337 0.5030973
vt 0.4868298 0.4942533
vt 0.4849337 0.5030973
vt 0.4838407 0.5027111
vt 0.5532668 0.4958808
vt 0.5546011 0.4958034
vt 0.5551202 0.5047588
vt 0.5532668 0.4958808
vt 0.5551202 0.5047588
vt 0.553786 0.5048361
vt 0.4405409 0.55921
vt 0.4392104 0.5590833
vt 0.4394025 0.5588119
vt 0.4405413 0.5592104
vt 0.4394029 0.5588123
vt 0.4407334 0.5589389
vt 0.5594591 0.5592101
vt 0.5585128 0.5598797
vt 0.5583207 0.5596082
vt 0.5594591 0.5592101
vt 0.5583207 0.5596082
vt 0.5592669 0.5589386
vt 0.5607896 0.5590833
vt 0.5605975 0.5588119
vt 0.562452 0.5591294
vt 0.5607896 0.5590833
vt 0.562452 0.5591294
vt 0.5626441 0.5594009
vt 0.5684686 0.5150512
vt 0.5693898 0.5061283
vt 0.5712613 0.5063215
vt 0.5684686 0.5150512
vt 0.5712613 0.5063215
vt 0.5703401 0.5152445
vt 0.4394026 0.5588119
vt 0.4392104 0.5590834
vt 0.4373559 0.5594009
vt 0.4394026 0.5588119
vt 0.4373559 0.5594009
vt 0.437548 0.5591294
vt 0.4197218 0.5220995
vt 0.4222094 0.530718
vt 0.4207809 0.5311326
vt 0.4197218 0.5220995
vt 0.4207809 0.5311326
vt 0.4182933 0.5225141
vt 0.5624017 0.5596628
vt 0.5622108 0.5593904
vt 0.5635192 0.560098
vt 0.5624017 0.5596628
vt 0.5635192 0.560098
vt 0.5637101 0.5603703
vt 0.5775048 0.5306355
vt 0.5799924 0.522017
vt 0.5814209 0.5224316
vt 0.5775048 0.5306355
vt 0.5814209 0.5224316
vt 0.5789333 0.5310501
vt 0.4378135 0.5594075
vt 0.4376225 0.5596798
vt 0.4363142 0.5603873
vt 0.4378136 0.5594075
vt 0.4363143 0.5603874
vt 0.4365052 0.560115
vt 0.4177319 0.5286903
vt 0.4207855 0.537125
vt 0.4188083 0.5378431
vt 0.4177319 0.5286903
vt 0.4188083 0.5378431
vt 0.4157547 0.5294085
vt 0.5639555 0.5601026
vt 0.5637634 0.5598311
vt 0.5667707 0.5617775
vt 0.5644459 0.5596036
vt 0.5672758 0.5612534
vt 0.5661527 0.5608332
vt 0.5791402 0.5346795
vt 0.5819701 0.5261672
vt 0.5853693 0.5272973
vt 0.5791402 0.5346795
vt 0.5853693 0.5272973
vt 0.5825396 0.5358096
vt 0.4365052 0.5601151
vt 0.4363143 0.5603874
vt 0.4346241 0.5616397
vt 0.4357668 0.5593239
vt 0.4338672 0.5608253
vt 0.4327445 0.5612469
vt 0.4184269 0.5168555
vt 0.4203501 0.5256172
vt 0.4191783 0.5258722
vt 0.4184269 0.5168555
vt 0.4191783 0.5258722
vt 0.4172551 0.5171104
vt 0.4414873 0.5598798
vt 0.4416794 0.5596083
vt 0.4423811 0.5609198
vt 0.4414873 0.5598798
vt 0.4423812 0.5609198
vt 0.4421891 0.5611913
vt 0.4774699 0.5109839
vt 0.4817288 0.5188788
vt 0.4804197 0.519585
vt 0.4774696 0.510984
vt 0.4804194 0.5195851
vt 0.4761605 0.5116902
vt 0.5583209 0.559608
vt 0.558513 0.5598795
vt 0.5578113 0.561191
vt 0.5583209 0.559608
vt 0.5578113 0.561191
vt 0.5576192 0.5609195
vt 0.5391949 0.5329089
vt 0.5438273 0.5252272
vt 0.544634 0.5257111
vt 0.5391952 0.5329092
vt 0.5446343 0.5257114
vt 0.5400019 0.5333931
vt 0.4424634 0.5614486
vt 0.4426543 0.5611763
vt 0.4428172 0.5621029
vt 0.4424634 0.5614486
vt 0.4428172 0.5621029
vt 0.4426262 0.5623752
vt 0.4563738 0.525106
vt 0.4610062 0.5327877
vt 0.4601995 0.5332716
vt 0.4563741 0.5251058
vt 0.4601998 0.5332714
vt 0.4555674 0.5255897
vt 0.5573708 0.5611585
vt 0.5575618 0.5614308
vt 0.5573989 0.5623573
vt 0.5573708 0.5611585
vt 0.5573989 0.5623573
vt 0.557208 0.562085
vt 0.4283891 0.5446368
vt 0.4243812 0.5366116
vt 0.4246787 0.536463
vt 0.4283891 0.5446368
vt 0.4246787 0.536463
vt 0.4286866 0.5444883
o group1586682690
g mesh1586682690
usemtl mat21
f 3/3/1 2/2/1 1/1/1
f 4/6/2 3/5/2 1/4/2
f 6/9/3 5/8/3 2/7/3
f 7/12/4 6/11/4 2/10/4
f 10/15/5 9/14/5 8/13/5
f 11/18/6 10/17/6 8/16/6
f 13/21/7 12/20/7 9/19/7
f 14/24/8 13/23/8 9/22/8
f 6/27/9 7/26/9 15/25/9
f 13/30/10 6/29/10 15/28/10
f 5/33/11 8/32/11 9/31/11
f 12/36/12 5/35/12 9/34/12
f 1/39/13 2/38/13 5/37/13
f 12/42/14 1/41/14 5/40/14
f 14/45/15 16/44/15 6/43/15
f 13/48/16 14/47/16 6/46/16
f 16/51/17 8/50/17 5/49/17
f 6/54/18 16/53/18 5/52/18
f 15/57/19 1/56/19 12/55/19
f 13/60/20 15/59/20 12/58/20
f 17/63/21 14/62/21 9/61/21
f 10/66/22 17/65/22 9/64/22
f 18/69/23 16/68/23 14/67/23
f 17/72/24 18/71/24 14/70/24
f 11/75/25 8/74/25 16/73/25
f 18/78/26 11/77/26 16/76/26
f 19/81/27 10/80/27 11/79/27
f 20/84/28 19/83/28 11/82/28
f 21/87/29 17/86/29 10/85/29
f 19/90/30 21/89/30 10/88/30
f 22/93/31 18/92/31 17/91/31
f 21/96/32 22/95/32 17/94/32
f 20/99/33 11/98/33 18/97/33
f 22/102/34 20/101/34 18/100/34
f 23/105/35 19/104/35 20/103/35
f 24/108/36 23/107/36 20/106/36
f 25/111/37 21/110/37 19/109/37
f 23/114/38 25/113/38 19/112/38
f 26/117/39 22/116/39 21/115/39
f 25/120/40 26/119/40 21/118/40
f 24/123/41 20/122/41 22/121/41
f 26/126/42 24/125/42 22/124/42
f 25/129/43 23/128/43 24/127/43
f 26/132/44 25/131/44 24/130/44
f 27/135/45 7/134/45 2/133/45
f 3/138/46 27/137/46 2/136/46
f 28/141/47 15/140/47 7/139/47
f 27/144/48 28/143/48 7/142/48
f 4/147/49 1/146/49 15/145/49
f 28/150/50 4/149/50 15/148/50
f 29/153/51 3/152/51 4/151/51
f 30/156/52 29/155/52 4/154/52
f 31/159/53 27/158/53 3/157/53
f 29/162/54 31/161/54 3/160/54
f 32/165/55 28/164/55 27/163/55
f 31/168/56 32/167/56 27/166/56
f 30/171/57 4/170/57 28/169/57
f 32/174/58 30/173/58 28/172/58
f 31/177/59 29/176/59 30/175/59
f 32/180/60 31/179/60 30/178/60
