mtllib materials.mtl
v -0.123944 -0.01250005 0.113409
v 0.08099461 -0.01250005 0.151091
v 0.08099461 -0.01750004 0.151091
v -0.123944 -0.01750004 0.113409
v 0.1024693 0.002499938 0.01413083
v 0.123944 0.01749992 -0.1228294
v 0.123944 0.01249993 -0.1228294
v 0.02647471 0.002499938 -0.1416705
v -0.02225995 -0.004999995 -0.151091
v -0.02225989 -0.00999999 -0.151091
v 0.02647471 -0.002500057 -0.1416705
v -0.08423197 -0.01250005 -0.09203139
v -0.09746933 -0.01250005 -0.02355123
v -0.09746933 -0.01750004 -0.02355123
v -0.08423197 -0.01750004 -0.09203139
v 0.004999995 -0.01750004 -0.004710197
v -0.06099463 0.007499933 -0.1505115
v -0.03299731 -0.01250005 -0.08261085
v 0.004999995 -0.01250005 -0.004710197
v 0.0429973 -0.01250005 0.07319045
v -0.03299731 -0.01750004 -0.08261088
v -0.05199599 -0.01750004 -0.1215612
v -0.06099463 0.002499938 -0.1505115
v -0.06761336 -0.007500052 -0.1262715
vn -0.1808383 4.251975E-07 0.9835129
vn 0.9879298 -5.262284E-07 0.1549026
vn 0.1897893 1.553706E-06 -0.9818249
vn -0.9818249 -5.46441E-07 -0.1897888
vn -1.748456E-07 -1 -8.587123E-15
vn -0.05574718 0.9512985 0.3031889
vn 0.1669576 -0.9825953 -0.08143637
vn 0.3056391 0.9401161 0.1508858
vn 1.740621E-07 1 4.052246E-09
vn -0.1669576 0.9825952 0.08143638
vn 1.74708E-07 1 -2.604734E-09
vn -0.1669575 0.9825952 0.08143639
vn -0.1669576 0.9825953 0.08143632
vn 1.7467E-07 1 -6.621135E-10
vn 1.774089E-07 1 2.25964E-09
vn -0.1669565 0.9825953 0.08143736
vn 0.1669575 -0.9825952 -0.08143634
vn 0.1669573 -0.9825952 -0.08143707
vn -1.748455E-07 -1 -2.972413E-14
vn -1.748456E-07 -1 -1.059121E-13
vn -0.2747846 -0.8289132 -0.4872335
vn -0.3863856 -0.8106578 -0.439932
vn -0.01495828 1.611619E-07 -0.9998882
vn -0.9646846 1.69625E-06 -0.2634076
vn -0.01495823 4.257912E-06 -0.9998882
vn -0.815093 -0.3660197 -0.449058
vn -0.8996351 -1.621847E-06 -0.4366424
vn -0.3921959 -0.8141748 -0.4281376
vt 0.1262607 0.1309647
vt 0.1163016 0.1492681
vt 0.1158625 0.1490292
vt 0.1258216 0.1307258
vt 0.1542836 0.09060101
vt 0.145625 0.1015313
vt 0.1369664 0.1124616
vt 0.1366102 0.1121108
vt 0.1539273 0.09025019
vt -0.1188893 0.1504373
vt -0.1223375 0.141008
vt -0.1240617 0.1362934
vt -0.123623 0.1360534
vt -0.1218989 0.1407681
vt -0.1184506 0.1501974
vt -0.1411436 0.102922
vt -0.1458803 0.09780227
vt -0.1553536 0.08756277
vt -0.1549866 0.08722322
vt -0.1455133 0.09746271
vt -0.1407766 0.1025825
vt 0.06351696 0.02642117
vt 0.07395847 0.04445372
vt 0.05673004 0.04253715
vt 0.05150928 0.03352088
vt -0.0001119967 0.06901475
vt -0.007703977 0.06846216
vt -0.004664106 0.06423173
vt 0.07102232 0.07525728
vt 0.04673836 0.0889708
vt 0.04163846 0.08032246
vt 0.05378044 0.0734657
vt 0.00509385 -0.001975928
vt 0.00307094 0.001556412
vt -0.002488172 -0.002651559
vt -0.05673003 0.04253715
vt -0.06534425 0.04349544
vt -0.06351696 0.02642117
vt -0.04672876 0.08906317
vt -0.05887074 0.08220641
vt -0.06239178 0.07445387
vt -0.05377084 0.07355808
vt -0.06534426 0.04349544
vt -0.07395847 0.04445372
vt -0.06351696 0.02642117
vt -0.05887074 0.08220641
vt -0.07101272 0.07534964
vt -0.06239178 0.07445386
vt -0.04162887 0.08041485
vt -0.04672877 0.08906318
vt -0.05377085 0.07355809
vt -0.04514991 0.07266231
vt -0.04811582 0.04157887
vt -0.05673004 0.04253715
vt -0.06351696 0.02642117
vt -0.05150928 0.03352088
vt -0.04811582 0.04157887
vt -0.05150928 0.03352088
vt -0.04550544 0.03707073
vt -0.03907872 0.07609056
vt -0.04162868 0.08041473
vt -0.04514972 0.07266218
vt 0.04163846 0.08032246
vt 0.0451595 0.07256991
vt 0.05378044 0.0734657
vt 0.04163835 0.08032246
vt 0.03908841 0.0759983
vt 0.04084892 0.07212202
vt 0.04515939 0.07256991
vt 0.05673004 0.04253715
vt 0.04811581 0.04157887
vt 0.04550544 0.03707073
vt 0.05150928 0.03352088
vt 0.04811581 0.04157887
vt 0.04380871 0.04109973
vt 0.04550544 0.03707073
vt -0.05152471 0.04381751
vt -0.05416277 0.04071746
vt -0.0506937 0.03964206
vt -0.05653118 0.02064334
vt -0.0599767 0.02179196
vt -0.05821698 0.01973837
vt -0.1339026 0.1248669
vt -0.1334549 0.1246442
vt -0.1306105 0.1275561
vt -0.1422284 0.1009927
vt -0.1414046 0.1035686
vt -0.1417908 0.1038862
vt -0.1310584 0.1277786
vt -0.1339029 0.1248668
vt -0.1306107 0.127556
vt -0.1356099 0.0368953
vt -0.136552 0.03966592
vt -0.1360508 0.03308201
vt -0.1473876 0.09074771
vt -0.1461265 0.09447536
vt -0.1478049 0.09102304
vt -0.0554936 0.01833222
vt -0.05717558 0.01742017
vt -0.05529175 0.01396519
o group1254666127
g mesh1254666127
usemtl mat21
f 4/4/1 3/3/1 2/2/1 1/1/1
f 3/9/2 7/8/2 6/7/2 5/6/2 2/5/2
f 7/15/3 11/14/3 10/13/3 9/12/3 8/11/3 6/10/3
f 15/21/4 14/20/4 4/19/4 1/18/4 13/17/4 12/16/4
f 14/25/5 16/24/5 3/23/5 4/22/5
f 12/28/6 18/27/6 17/26/6
f 16/32/7 11/31/7 7/30/7 3/29/7
f 18/35/8 9/34/8 17/33/8
f 1/38/9 20/37/9 19/36/9
f 19/42/10 20/41/10 5/40/10 6/39/10
f 1/45/11 2/44/11 20/43/11
f 20/48/12 2/47/12 5/46/12
f 18/52/13 19/51/13 6/50/13 8/49/13
f 13/56/14 1/55/14 19/54/14 18/53/14
f 12/59/15 13/58/15 18/57/15
f 18/62/16 8/61/16 9/60/16
f 16/65/17 21/64/17 11/63/17
f 21/69/18 22/68/18 10/67/18 11/66/18
f 14/73/19 15/72/19 21/71/19 16/70/19
f 15/76/20 22/75/20 21/74/20
f 22/79/21 23/78/21 10/77/21
f 24/82/22 23/81/22 22/80/22
f 10/85/23 23/84/23 17/83/23
f 17/88/24 23/87/24 24/86/24
f 10/91/25 17/90/25 9/89/25
f 12/94/26 17/93/26 24/92/26
f 12/97/27 24/96/27 15/95/27
f 15/100/28 24/99/28 22/98/28
