mtllib materials.mtl
v -0.02149403 -0.002530694 0.1369295
v 0.02974063 -0.002530694 0.14635
v 0.02974075 -0.007530689 0.14635
v -0.02149397 -0.007530689 0.1369295
v 0.08097535 -0.02753067 0.1457705
v 0.08097535 -0.02253067 0.1457705
v 0.09171271 0.004969358 0.08729041
v 0.1024501 0.01246929 0.01881036
v 0.1239248 0.02746928 -0.1181499
v 0.1239248 0.02246928 -0.1181499
v 0.1024501 0.007469296 0.01881033
v 0.09171271 -3.063679E-05 0.08729041
v 0.02645546 0.01246929 -0.136991
v -0.0222792 0.004969358 -0.1464115
v -0.02227914 -3.063679E-05 -0.1464115
v 0.02645546 0.007469296 -0.136991
v -0.07763261 0.002469301 -0.121592
v -0.08425122 -0.002530694 -0.08735186
v -0.09748858 -0.002530694 -0.01887169
v -0.1239633 0.01746929 0.1080886
v -0.1239633 0.01246929 0.1080886
v -0.09748858 -0.007530689 -0.01887169
v -0.08425122 -0.007530689 -0.08735186
v 0.04297805 -0.007530689 0.07786989
v 0.004980743 -0.007530689 -3.066659E-05
v -0.06101388 0.01746929 -0.145832
v -0.03301656 -0.002530694 -0.07793131
v 0.004980743 -0.002530694 -3.066659E-05
v 0.04297805 -0.002530694 0.07786995
v -0.03301656 -0.007530689 -0.07793134
v -0.05201524 -0.007530689 -0.1168817
v -0.06101388 0.01246929 -0.145832
vn -0.1808384 -4.415005E-06 0.9835128
vn -0.1808382 -2.155762E-06 0.9835128
vn 0.9835588 0 0.1805882
vn 0.9879298 0 0.1549027
vn 0.9879298 -9.232926E-07 0.1549026
vn 0.9879298 -9.232932E-07 0.1549027
vn 0.9835588 0 0.1805882
vn 0.9879298 0 0.1549029
vn 0.1897891 0 -0.9818249
vn 0.1897898 -6.367277E-06 -0.9818248
vn 0.1897887 2.26246E-06 -0.9818249
vn 0.1897887 2.902626E-06 -0.981825
vn 0.9818249 1.344185E-05 0.1897888
vn -0.9789424 0 -0.2041365
vn -0.9789424 0 -0.2041365
vn -0.9818249 0 -0.1897888
vn -0.981825 -5.376738E-06 -0.1897884
vn 0 -1 0
vn 0 -1 0
vn -0.05574749 0.9512985 0.3031888
vn 0.2124623 -0.8987226 -0.3836108
vn 0.3056388 0.9401162 0.1508856
vn 0.1092664 0.9925827 -0.0532965
vn -0.1669578 0.9825951 0.08143633
vn -0.1669577 0.9825951 0.08143635
vn 0.1457866 0.9764315 0.1591473
vn -0.1669586 0.9825951 0.08143544
vn -0.1669577 0.9825951 0.08143632
vn -0.1669577 0.9825951 0.08143632
vn 0 1 0
vn 0 1 0
vn -0.1669567 0.9825953 0.08143733
vn 0.1669578 -0.9825951 -0.08143631
vn 0.1669571 -0.9825951 -0.08143842
vn 0.1669577 -0.9825951 -0.08143642
vn 0 -1 0
vn 0 -1 0
vn 0 -1 0
vn -0.2747843 -0.8289133 -0.4872333
vn -0.2325172 -0.8325095 -0.5028556
vn -0.01495845 0 -0.9998881
vn -0.8247764 0 -0.565459
vn -0.01495853 -1.783197E-07 -0.9998881
vn -0.69239 0.720958 -0.02855944
vn -0.2124618 0.8987228 0.383611
vn 0 1 0
vn 0.3634272 0.92897 0.07025164
vn 0.1669578 -0.9825951 -0.08143633
vn 0.1669578 -0.9825952 -0.08143637
vn 0.1669575 -0.9825951 -0.08143635
vn 0 -1 0
vn -0.3634279 -0.9289698 -0.07025108
vn 0.1669587 -0.9825951 -0.0814354
vn 0.01130953 0 0.999936
vn 0.01130961 2.696424E-07 0.999936
vn -0.2709324 0 0.9625983
vn -0.2193959 -0.9697492 0.107014
vn -0.2709332 -3.229778E-06 0.9625982
vn 0.0275693 0.9883108 -0.1499391
vn -0.2929408 -0.9010673 -0.3197864
vt 0.5546536 0.5810586
vt 0.5534087 0.5833465
vt 0.5531892 0.5832271
vt 0.5546535 0.5810587
vt 0.553189 0.5832271
vt 0.5544339 0.5809392
vt 0.5774634 0.5424255
vt 0.5776455 0.5425968
vt 0.576611 0.5457046
vt 0.574279 0.5492743
vt 0.5699497 0.5547395
vt 0.5697715 0.5545641
vt 0.574279 0.5492744
vt 0.5697715 0.5545641
vt 0.5741008 0.549099
vt 0.574279 0.5492744
vt 0.5741009 0.549099
vt 0.5762655 0.5463664
vt 0.5764289 0.5455334
vt 0.5774634 0.5424255
vt 0.576611 0.5457046
vt 0.5762655 0.5463663
vt 0.5764436 0.5465417
vt 0.574279 0.5492743
vt 0.4467941 0.5860994
vt 0.4465747 0.5862194
vt 0.4448506 0.5815047
vt 0.4467944 0.5860995
vt 0.4448509 0.5815049
vt 0.4439888 0.5791475
vt 0.4439884 0.5791473
vt 0.4442078 0.5790274
vt 0.4450698 0.5813847
vt 0.4439884 0.5791473
vt 0.4450698 0.5813847
vt 0.4467939 0.5860993
vt 0.5706898 0.5516984
vt 0.5716904 0.5502487
vt 0.5740587 0.5476888
vt 0.4257629 0.5472253
vt 0.420675 0.5430825
vt 0.4208605 0.5429149
vt 0.4257629 0.5472253
vt 0.4208605 0.5429149
vt 0.4259484 0.5470577
vt 0.4259415 0.54769
vt 0.426125 0.5475203
vt 0.4284933 0.5500802
vt 0.4259414 0.5476896
vt 0.4284932 0.5500797
vt 0.4293104 0.5516992
vt 0.5421701 0.5276739
vt 0.5404733 0.5317029
vt 0.5361663 0.5312238
vt 0.5421701 0.5276739
vt 0.5361663 0.5312238
vt 0.5335559 0.5267156
vt 0.4912735 0.5436994
vt 0.4874775 0.5434231
vt 0.4889974 0.5413079
vt 0.5239038 0.5591788
vt 0.5212646 0.5611188
vt 0.5198901 0.5590186
vt 0.4938139 0.5071036
vt 0.4928024 0.5088698
vt 0.4900229 0.5067657
vt 0.4628035 0.5208275
vt 0.4585001 0.5213395
vt 0.4598135 0.5128997
vt 0.4687461 0.5542733
vt 0.4626751 0.5508449
vt 0.4609146 0.5469686
vt 0.4687461 0.5542733
vt 0.4609146 0.5469686
vt 0.4652251 0.5465208
vt 0.4754401 0.5214986
vt 0.4741803 0.5173124
vt 0.4778091 0.5132923
vt 0.462675 0.550845
vt 0.4596395 0.5491308
vt 0.4609145 0.5469687
vt 0.4712961 0.5499491
vt 0.4687461 0.5542733
vt 0.4652251 0.5465208
vt 0.4712961 0.5499491
vt 0.4652251 0.5465208
vt 0.4695355 0.5460728
vt 0.4681408 0.5307446
vt 0.4638337 0.5312238
vt 0.4664441 0.5267156
vt 0.4681408 0.5307446
vt 0.4664441 0.5267156
vt 0.469446 0.5284905
vt 0.4725711 0.547787
vt 0.4712961 0.549949
vt 0.4695356 0.5460728
vt 0.5287088 0.5499029
vt 0.5304692 0.5460266
vt 0.5347797 0.5464746
vt 0.5287086 0.5499029
vt 0.5274336 0.5477409
vt 0.5283139 0.5458027
vt 0.5287088 0.5499029
vt 0.528314 0.5458027
vt 0.5304692 0.5460266
vt 0.5361663 0.5312238
vt 0.5318592 0.5307446
vt 0.5305539 0.5284905
vt 0.5361663 0.5312238
vt 0.5305539 0.5284905
vt 0.5335559 0.5267156
vt 0.5318592 0.5307446
vt 0.5297056 0.5305051
vt 0.5305539 0.5284905
vt 0.4830009 0.5293701
vt 0.4816818 0.5278201
vt 0.4834164 0.5272823
vt 0.4844365 0.5310938
vt 0.4826988 0.5316209
vt 0.4833541 0.5302138
vt 0.4383666 0.5731214
vt 0.4385904 0.5730101
vt 0.4400126 0.574466
vt 0.4281828 0.5495644
vt 0.4284892 0.5510861
vt 0.4282731 0.5512118
vt 0.4397888 0.5745773
vt 0.4383666 0.5731214
vt 0.4400126 0.574466
vt 0.4541468 0.5765218
vt 0.4549304 0.5779737
vt 0.4526607 0.5755762
vt 0.4788012 0.5612065
vt 0.476162 0.5592664
vt 0.4801758 0.5591062
vt 0.4595266 0.5317029
vt 0.4565247 0.529928
vt 0.4578299 0.5276739
vt 0.4776808 0.497793
vt 0.4736698 0.4980119
vt 0.474976 0.4955917
vt 0.5390902 0.5469224
vt 0.5373297 0.5507987
vt 0.5312587 0.5542271
vt 0.5390902 0.5469224
vt 0.5312587 0.5542271
vt 0.5287088 0.5499029
vt 0.5390902 0.5469224
vt 0.5287088 0.5499029
vt 0.5347797 0.5464745
vt 0.5421701 0.5276739
vt 0.5434753 0.529928
vt 0.5404733 0.5317029
vt 0.5250825 0.4956634
vt 0.5263886 0.4980835
vt 0.5223776 0.4978647
vt 0.5403653 0.5490846
vt 0.5373298 0.5507988
vt 0.5390903 0.5469225
vt 0.5566882 0.5785223
vt 0.5564644 0.5784109
vt 0.5585017 0.5765634
vt 0.5587254 0.5766748
vt 0.5566882 0.5785223
vt 0.5585017 0.5765634
vt 0.5514131 0.5839379
vt 0.5549408 0.5798288
vt 0.5551573 0.5799538
vt 0.535866 0.5057164
vt 0.5414773 0.5023161
vt 0.5444608 0.5068359
vt 0.5514133 0.5839379
vt 0.5551575 0.5799538
vt 0.5516298 0.5840629
vt 0.4543846 0.5279378
vt 0.45085 0.5202373
vt 0.4566742 0.5232586
vt 0.4952643 0.5160422
vt 0.4942479 0.5150866
vt 0.4956052 0.5138831
o group439954969
g mesh439954969
usemtl mat21
f 3/3/1 2/2/1 1/1/1
f 4/6/2 3/5/2 1/4/2
f 7/9/3 6/8/3 5/7/3
f 10/12/4 9/11/4 8/10/4
f 11/15/5 10/14/5 8/13/5
f 12/18/6 11/17/6 8/16/6
f 7/21/7 5/20/7 12/19/7
f 8/24/8 7/23/8 12/22/8
f 13/27/9 9/26/9 10/25/9
f 14/30/10 13/29/10 10/28/10
f 16/33/11 15/32/11 14/31/11
f 10/36/12 16/35/12 14/34/12
f 19/39/13 18/38/13 17/37/13
f 21/42/14 20/41/14 19/40/14
f 22/45/15 21/44/15 19/43/15
f 23/48/16 22/47/16 19/46/16
f 17/51/17 23/50/17 19/49/17
f 25/54/18 24/53/18 4/52/18
f 22/57/19 25/56/19 4/55/19
f 18/60/20 27/59/20 26/58/20
f 24/63/21 12/62/21 5/61/21
f 27/66/22 14/65/22 26/64/22
f 20/69/23 29/68/23 28/67/23
f 29/72/24 8/71/24 9/70/24
f 28/75/25 29/74/25 9/73/25
f 20/78/26 1/77/26 29/76/26
f 29/81/27 7/80/27 8/79/27
f 28/84/28 9/83/28 13/82/28
f 27/87/29 28/86/29 13/85/29
f 19/90/30 28/89/30 27/88/30
f 18/93/31 19/92/31 27/91/31
f 27/96/32 13/95/32 14/94/32
f 25/99/33 30/98/33 16/97/33
f 31/102/34 15/101/34 16/100/34
f 30/105/35 31/104/35 16/103/35
f 23/108/36 30/107/36 25/106/36
f 22/111/37 23/110/37 25/109/37
f 23/114/38 31/113/38 30/112/38
f 31/117/39 32/116/39 15/115/39
f 17/120/40 32/119/40 31/118/40
f 15/123/41 32/122/41 26/121/41
f 26/126/42 32/125/42 17/124/42
f 15/129/43 26/128/43 14/127/43
f 18/132/44 26/131/44 17/130/44
f 29/135/45 6/134/45 7/133/45
f 1/138/46 2/137/46 29/136/46
f 2/141/47 6/140/47 29/139/47
f 10/144/48 11/143/48 24/142/48
f 16/147/49 10/146/49 24/145/49
f 25/150/50 16/149/50 24/148/50
f 24/153/51 3/152/51 4/151/51
f 24/156/52 5/155/52 3/154/52
f 24/159/53 11/158/53 12/157/53
f 3/162/54 5/161/54 6/160/54
f 3/165/55 6/164/55 2/163/55
f 20/168/56 21/167/56 4/166/56
f 4/171/57 21/170/57 22/169/57
f 1/174/58 20/173/58 4/172/58
f 19/177/59 20/176/59 28/175/59
f 23/180/60 17/179/60 31/178/60
