mtllib materials.mtl
v -0.02147478 -0.002500057 0.1369603
v 0.02975988 -0.002500057 0.1463808
v 0.02976 -0.007500052 0.1463808
v -0.02147472 -0.007500052 0.1369603
v 0.08099461 -0.02250004 0.1458013
v 0.09173197 0.004999995 0.08732116
v 0.1024693 0.01249993 0.01884109
v 0.123944 0.02749991 -0.1181192
v 0.123944 0.02249992 -0.1181192
v 0.1024693 0.007499933 0.01884106
v 0.09173197 0 0.08732116
v 0.08099461 -0.02750003 0.1458013
v 0.02647471 0.01249993 -0.1369602
v -0.02225995 0.004999995 -0.1463808
v -0.02225989 0 -0.1463808
v 0.02647471 0.007499933 -0.1369602
v -0.08423197 -0.002500057 -0.08732113
v -0.09746933 -0.002500057 -0.01884097
v -0.123944 0.01749992 0.1081193
v -0.123944 0.01249993 0.1081193
v -0.09746933 -0.007500052 -0.01884097
v -0.08423197 -0.007500052 -0.08732113
v -0.07761335 0.002499938 -0.1215613
v 0.0429973 -0.007500052 0.07790065
v 0.004999995 -0.007500052 5.960464E-08
v -0.06099463 0.01749992 -0.1458013
v -0.03299731 -0.002500057 -0.07790059
v 0.004999995 -0.002500057 5.960464E-08
v 0.0429973 -0.002500057 0.07790071
v -0.03299731 -0.007500052 -0.07790062
v -0.05199599 -0.007500052 -0.1168509
v -0.06099463 0.01249993 -0.1458013
vn -0.1808383 -2.942452E-06 0.9835128
vn 0.9870158 -1.153428E-06 0.1606232
vn 0.1897893 1.553706E-06 -0.9818249
vn -0.9801265 2.273406E-07 -0.1983736
vn -1.230117E-07 -1 -6.512973E-08
vn -0.05574718 0.9512985 0.3031889
vn 0.2124623 -0.8987227 -0.3836109
vn 0.3056391 0.9401161 0.1508858
vn 0.1092665 0.9925827 -0.05329642
vn -0.1669576 0.9825952 0.08143638
vn 0.1457867 0.9764314 0.1591473
vn -0.1669586 0.9825951 0.08143523
vn -0.1669576 0.9825953 0.08143632
vn 1.724949E-07 1 -1.108459E-09
vn 1.774089E-07 1 2.25964E-09
vn -0.1669565 0.9825953 0.08143736
vn 0.1669575 -0.9825952 -0.08143634
vn 0.1669573 -0.9825952 -0.08143707
vn -1.748455E-07 -1 -2.972413E-14
vn -1.748456E-07 -1 -1.059121E-13
vn -0.2747846 -0.8289132 -0.4872335
vn -0.2325164 -0.8325096 -0.5028558
vn -0.01495828 1.611619E-07 -0.9998882
vn -0.8247764 3.087528E-06 -0.5654591
vn -0.01495823 4.257912E-06 -0.9998882
vn -0.6923901 0.7209579 -0.02856004
vn -0.2124619 0.8987228 0.383611
vn 5.909364E-09 1 -2.290101E-08
vn 0.3634273 0.92897 0.07025162
vn 0.1669577 -0.9825951 -0.08143634
vn -8.09856E-16 -1 3.659873E-16
vn -0.363428 -0.9289699 -0.07025108
vn 0.1669587 -0.9825951 -0.08143536
vn 0.01130973 8.87966E-08 0.999936
vn 0.01130965 5.34156E-07 0.999936
vn -0.2709325 8.717574E-08 0.9625984
vn -0.2193959 -0.9697492 0.1070138
vn -0.2709329 -2.169077E-06 0.9625983
vn 0.02756942 0.9883108 -0.1499389
vn -0.2929404 -0.9010676 -0.3197861
vt 0.1093086 0.1621209
vt 0.1068188 0.1666968
vt 0.1063796 0.1664578
vt 0.1088694 0.161882
vt 0.1551578 0.0865109
vt 0.1529787 0.09268763
vt 0.1486785 0.09817548
vt 0.1400779 0.1091512
vt 0.1397198 0.1088023
vt 0.1483203 0.09782654
vt 0.1526206 0.09233869
vt 0.1547997 0.08616196
vt -0.1068521 0.1724423
vt -0.1103004 0.163013
vt -0.1120245 0.1582983
vt -0.1115859 0.1580584
vt -0.1098617 0.162773
vt -0.1064135 0.1722024
vt -0.1436412 0.09996958
vt -0.1483401 0.09481559
vt -0.1585557 0.08657935
vt -0.1581862 0.08624249
vt -0.1479706 0.09447872
vt -0.1432717 0.09963272
vt -0.1416612 0.1028834
vt 0.08434372 0.05534856
vt 0.08095025 0.06340655
vt 0.07233604 0.06244827
vt 0.06711528 0.053432
vt -0.01745576 0.08739983
vt -0.02504774 0.08684723
vt -0.02200787 0.0826168
vt 0.04781022 0.1183593
vt 0.04253189 0.1222392
vt 0.03978275 0.1180389
vt -0.01237478 0.01420659
vt -0.01439769 0.01773893
vt -0.0199568 0.01353096
vt -0.0743966 0.04165551
vt -0.08300325 0.04267953
vt -0.0803765 0.02579978
vt -0.06251126 0.1085479
vt -0.07465324 0.1016911
vt -0.07817428 0.09393857
vt -0.06955334 0.09304278
vt -0.04912265 0.04299745
vt -0.0516422 0.03462495
vt -0.04438462 0.02658474
vt -0.07465343 0.1016912
vt -0.08072442 0.09826286
vt -0.07817447 0.09393869
vt -0.05741136 0.09989955
vt -0.06251127 0.1085479
vt -0.06955335 0.09304279
vt -0.06093241 0.09214701
vt -0.06372183 0.06148998
vt -0.07233605 0.06244826
vt -0.06711529 0.05343199
vt -0.06372183 0.06148998
vt -0.06711529 0.05343199
vt -0.06111145 0.05698184
vt -0.05486123 0.09557526
vt -0.05741118 0.09989942
vt -0.06093223 0.09214687
vt 0.05742096 0.09980715
vt 0.06094199 0.09205461
vt 0.06956294 0.09295039
vt 0.05742086 0.09980715
vt 0.0548709 0.09548299
vt 0.05663142 0.09160671
vt 0.06094189 0.09205461
vt 0.07233605 0.06244826
vt 0.06372182 0.06148998
vt 0.06111145 0.05698184
vt 0.06711529 0.05343199
vt 0.06372182 0.06148998
vt 0.05941471 0.06101084
vt 0.06111145 0.05698184
vt -0.03399702 0.05874009
vt -0.03663508 0.05564004
vt -0.03316601 0.05456464
vt -0.03112549 0.06218804
vt -0.03460108 0.06324218
vt -0.03329035 0.060428
vt -0.1232687 0.1462459
vt -0.1228211 0.1460232
vt -0.1199766 0.1489351
vt -0.1436377 0.09912953
vt -0.1430251 0.1021729
vt -0.1434574 0.1024242
vt -0.1204246 0.1491577
vt -0.123269 0.1462459
vt -0.1199769 0.148935
vt -0.09171046 0.1530459
vt -0.09014336 0.1559496
vt -0.09468284 0.1511546
vt -0.04240028 0.1224146
vt -0.04767862 0.1185347
vt -0.03965116 0.1182142
vt -0.08095028 0.06340657
vt -0.08695412 0.05985671
vt -0.08434374 0.05534858
vt -0.04464122 -0.004414718
vt -0.05266315 -0.003977059
vt -0.05005082 -0.008817416
vt 0.07466284 0.1015987
vt 0.06252087 0.1084555
vt 0.05742096 0.09980717
vt 0.06956294 0.09295042
vt 0.07818387 0.0938462
vt 0.08434374 0.05534859
vt 0.08695412 0.05985673
vt 0.08095028 0.06340657
vt 0.05016767 -0.008674029
vt 0.05278 -0.003833682
vt 0.04475807 -0.004271338
vt 0.08073401 0.0981705
vt 0.07466302 0.1015989
vt 0.07818405 0.09384634
vt 0.1133783 0.1570476
vt 0.1129308 0.1568247
vt 0.1170052 0.1531298
vt 0.1174527 0.1533527
vt 0.1133783 0.1570476
vt 0.1170052 0.1531298
vt 0.1028276 0.1678797
vt 0.1098829 0.1596615
vt 0.1103159 0.1599115
vt 0.07173558 0.01143302
vt 0.08295825 0.004632303
vt 0.08892509 0.01367191
vt 0.1028278 0.1678797
vt 0.1103162 0.1599115
vt 0.1032608 0.1681297
vt -0.09123468 0.05587631
vt -0.09830387 0.04047535
vt -0.08665545 0.04651789
vt -0.009469402 0.03208402
vt -0.01150206 0.03017282
vt -0.008787597 0.02776582
o group439954969
g mesh439954969
usemtl mat21
f 4/4/1 3/3/1 2/2/1 1/1/1
f 12/12/2 11/11/2 10/10/2 9/9/2 8/8/2 7/7/2 6/6/2 5/5/2
f 9/18/3 16/17/3 15/16/3 14/15/3 13/14/3 8/13/3
f 23/25/4 22/24/4 21/23/4 20/22/4 19/21/4 18/20/4 17/19/4
f 21/29/5 25/28/5 24/27/5 4/26/5
f 17/32/6 27/31/6 26/30/6
f 24/35/7 11/34/7 12/33/7
f 27/38/8 14/37/8 26/36/8
f 19/41/9 29/40/9 28/39/9
f 28/45/10 29/44/10 7/43/10 8/42/10
f 19/48/11 1/47/11 29/46/11
f 29/51/12 6/50/12 7/49/12
f 27/55/13 28/54/13 8/53/13 13/52/13
f 18/58/14 28/57/14 27/56/14
f 17/61/15 18/60/15 27/59/15
f 27/64/16 13/63/16 14/62/16
f 25/67/17 30/66/17 16/65/17
f 30/71/18 31/70/18 15/69/18 16/68/18
f 21/75/19 22/74/19 30/73/19 25/72/19
f 22/78/20 31/77/20 30/76/20
f 31/81/21 32/80/21 15/79/21
f 23/84/22 32/83/22 31/82/22
f 15/87/23 32/86/23 26/85/23
f 26/90/24 32/89/24 23/88/24
f 15/93/25 26/92/25 14/91/25
f 17/96/26 26/95/26 23/94/26
f 29/99/27 5/98/27 6/97/27
f 1/102/28 2/101/28 29/100/28
f 2/105/29 5/104/29 29/103/29
f 24/110/30 25/109/30 16/108/30 9/107/30 10/106/30
f 24/113/31 3/112/31 4/111/31
f 24/116/32 12/115/32 3/114/32
f 24/119/33 10/118/33 11/117/33
f 3/122/34 12/121/34 5/120/34
f 3/125/35 5/124/35 2/123/35
f 19/128/36 20/127/36 4/126/36
f 4/131/37 20/130/37 21/129/37
f 1/134/38 19/133/38 4/132/38
f 18/137/39 19/136/39 28/135/39
f 22/140/40 23/139/40 31/138/40
